/* XPM */
static char * close_inactive_xpm[] = {
"30 30 8 1",
" 	c None",
".	c #2C2C2C",
"+	c #666666",
"@	c #676767",
"#	c #FFFFFF",
"$	c #A2A2A2",
"%	c #9B9B9B",
"&	c #9C9C9C",
"..............................",
"..............................",
"..............................",
"..............................",
"..............................",
"..............................",
"..............................",
"..............................",
"..............................",
"..........+........+..........",
".........@#$......$#@.........",
"..........%#$....&#$..........",
"...........%#$..&#$...........",
"............$#$$#$............",
".............$##$.............",
".............&##$.............",
"............$#$$#$............",
"...........&#$..%#$...........",
"..........&#$....%#$..........",
".........@#$......$#@.........",
"..........+........+..........",
"..............................",
"..............................",
"..............................",
"..............................",
"..............................",
"..............................",
"..............................",
"..............................",
".............................."};
