/* XPM */
static char * close_active_xpm[] = {
"30 30 7 1",
" 	c None",
".	c #424242",
"+	c #767676",
"@	c #777777",
"#	c #FFFFFF",
"$	c #ABABAB",
"%	c #A6A6A6",
"..............................",
"..............................",
"..............................",
"..............................",
"..............................",
"..............................",
"..............................",
"..............................",
"..............................",
"..........+........+..........",
".........@#$......$#@.........",
"..........%#$....%#$..........",
"...........%#$..%#$...........",
"............$#$$#$............",
".............$##$.............",
".............%##$.............",
"............$#$$#$............",
"...........%#$..%#$...........",
"..........%#$....%#$..........",
".........@#$......$#@.........",
"..........+........+..........",
"..............................",
"..............................",
"..............................",
"..............................",
"..............................",
"..............................",
"..............................",
"..............................",
".............................."};
