/* XPM */
static char * close_prelight_xpm[] = {
"30 30 11 1",
" 	c None",
".	c #D91717",
"+	c #DA1616",
"@	c #C62525",
"#	c #E35757",
"$	c #E35858",
"%	c #FFFFFF",
"&	c #EE9999",
"*	c #ED9191",
"=	c #ED9292",
"-	c #D91616",
"............................+@",
".............................+",
"..............................",
"..............................",
"..............................",
"..............................",
"..............................",
"..............................",
"..............................",
"..........#........#..........",
".........$%&......&%$.........",
"..........*%&....=%&..........",
"...........*%&..=%&...........",
"............&%&&%&............",
".............&%%&.............",
".............=%%&.............",
"............&%&&%&............",
"...........=%&..*%&...........",
"..........=%&....*%&..........",
".........$%&......&%$-........",
"..........#........#..........",
"..............................",
"..............................",
"..............................",
"..............................",
"..............................",
"..............................",
"..............................",
"..............................",
".............................."};
