/* XPM */
static char * maximize_active_xpm[] = {
"30 30 5 1",
" 	c None",
".	c #3D3D3D",
"+	c #828282",
"@	c #B1B1B1",
"#	c #DFDFDF",
"..............................",
"..............................",
"..............................",
"..............................",
"..............................",
"..............................",
"..............................",
"..............................",
"..............................",
".........+@@@@@@@@@@+.........",
".........@#@@@@@@@@#@.........",
".........@@........@@.........",
".........@@........@@.........",
".........@@........@@.........",
".........@@........@@.........",
".........@@........@@.........",
".........@@........@@.........",
".........@@........@@.........",
".........@@........@@.........",
".........@#@@@@@@@@#@.........",
".........+@@@@@@@@@@+.........",
"..............................",
"..............................",
"..............................",
"..............................",
"..............................",
"..............................",
"..............................",
"..............................",
".............................."};
